M48
; DRILL file {KiCad (6.0.2)} date Mon Feb 21 15:17:39 2022
; FORMAT={-:-/ absolute / metric / decimal}
; #@! TF.CreationDate,2022-02-21T15:17:39+01:00
; #@! TF.GenerationSoftware,Kicad,Pcbnew,(6.0.2)
; #@! TF.FileFunction,Plated,1,2,PTH
FMAT,2
METRIC
; #@! TA.AperFunction,Plated,PTH,ViaDrill
T1C0.400
; #@! TA.AperFunction,Plated,PTH,ComponentDrill
T2C1.000
%
G90
G05
T1
X113.773Y-82.359
X119.2Y-108.5
X119.2Y-114.5
X126.8Y-82.6
X128.744Y-115.355
X135.1Y-108.4
X135.1Y-114.6
X139.1Y-82.794
X143.5Y-108.2
X143.5Y-114.6
X151.746Y-82.232
X152.5Y-108.4
X152.5Y-114.6
X158.1Y-117.0
X159.6Y-115.5
X160.6Y-114.5
X161.6Y-113.5
X162.294Y-73.996
X165.4Y-74.0
X167.9Y-74.0
X168.902Y-118.444
X170.6Y-74.0
X173.1Y-74.0
X173.6Y-108.0
X175.7Y-74.0
X178.2Y-74.0
X180.7Y-74.0
X183.3Y-74.0
X186.6Y-113.0
X190.012Y-95.912
X197.7Y-78.2
T2
X126.092Y-118.808
X126.092Y-121.348
X129.14Y-73.591
X129.14Y-76.131
X135.49Y-62.42
X135.505Y-68.77
X138.03Y-62.42
X138.045Y-68.77
X140.57Y-62.42
X140.585Y-68.77
X143.11Y-62.42
X143.125Y-68.77
X145.65Y-62.42
X145.665Y-68.77
X148.19Y-62.42
X148.205Y-68.77
X150.73Y-62.42
X150.745Y-68.77
X153.27Y-62.42
X153.285Y-68.77
X165.462Y-91.63
X165.462Y-94.17
X165.477Y-62.395
X165.477Y-68.745
X168.002Y-91.63
X168.002Y-94.17
X168.017Y-62.395
X168.017Y-68.745
X170.542Y-91.63
X170.542Y-94.17
X170.557Y-62.395
X170.557Y-68.745
X173.082Y-91.63
X173.082Y-94.17
X173.097Y-62.395
X173.097Y-68.745
X175.622Y-91.63
X175.622Y-94.17
X175.637Y-62.395
X175.637Y-68.745
X178.162Y-91.63
X178.162Y-94.17
X178.177Y-62.395
X178.177Y-68.745
X180.702Y-91.63
X180.702Y-94.17
X180.717Y-62.395
X180.717Y-68.745
X183.242Y-91.63
X183.242Y-94.17
X183.257Y-62.395
X183.257Y-68.745
X188.322Y-63.436
X188.322Y-65.976
X188.322Y-68.516
X188.322Y-71.056
X188.322Y-73.596
X188.322Y-76.136
X192.64Y-73.591
X192.64Y-76.131
T0
M30
