%TF.GenerationSoftware,KiCad,Pcbnew,(6.0.2)*%
%TF.CreationDate,2022-02-20T13:14:23+01:00*%
%TF.ProjectId,220217_GPIOExpanderAW9523,32323032-3137-45f4-9750-494f45787061,v01*%
%TF.SameCoordinates,Original*%
%TF.FileFunction,Paste,Top*%
%TF.FilePolarity,Positive*%
%FSLAX46Y46*%
G04 Gerber Fmt 4.6, Leading zero omitted, Abs format (unit mm)*
G04 Created by KiCad (PCBNEW (6.0.2)) date 2022-02-20 13:14:23*
%MOMM*%
%LPD*%
G01*
G04 APERTURE LIST*
G04 Aperture macros list*
%AMRoundRect*
0 Rectangle with rounded corners*
0 $1 Rounding radius*
0 $2 $3 $4 $5 $6 $7 $8 $9 X,Y pos of 4 corners*
0 Add a 4 corners polygon primitive as box body*
4,1,4,$2,$3,$4,$5,$6,$7,$8,$9,$2,$3,0*
0 Add four circle primitives for the rounded corners*
1,1,$1+$1,$2,$3*
1,1,$1+$1,$4,$5*
1,1,$1+$1,$6,$7*
1,1,$1+$1,$8,$9*
0 Add four rect primitives between the rounded corners*
20,1,$1+$1,$2,$3,$4,$5,0*
20,1,$1+$1,$4,$5,$6,$7,0*
20,1,$1+$1,$6,$7,$8,$9,0*
20,1,$1+$1,$8,$9,$2,$3,0*%
%AMRotRect*
0 Rectangle, with rotation*
0 The origin of the aperture is its center*
0 $1 length*
0 $2 width*
0 $3 Rotation angle, in degrees counterclockwise*
0 Add horizontal line*
21,1,$1,$2,0,0,$3*%
G04 Aperture macros list end*
%ADD10R,1.400000X2.100000*%
%ADD11RoundRect,0.250000X0.450000X-0.262500X0.450000X0.262500X-0.450000X0.262500X-0.450000X-0.262500X0*%
%ADD12RoundRect,0.243750X0.456250X-0.243750X0.456250X0.243750X-0.456250X0.243750X-0.456250X-0.243750X0*%
%ADD13RoundRect,0.250000X-0.450000X0.262500X-0.450000X-0.262500X0.450000X-0.262500X0.450000X0.262500X0*%
%ADD14RoundRect,0.250000X0.262500X0.450000X-0.262500X0.450000X-0.262500X-0.450000X0.262500X-0.450000X0*%
%ADD15RoundRect,0.243750X-0.456250X0.243750X-0.456250X-0.243750X0.456250X-0.243750X0.456250X0.243750X0*%
%ADD16RoundRect,0.250000X-0.475000X0.250000X-0.475000X-0.250000X0.475000X-0.250000X0.475000X0.250000X0*%
%ADD17RoundRect,0.250000X-0.262500X-0.450000X0.262500X-0.450000X0.262500X0.450000X-0.262500X0.450000X0*%
%ADD18RotRect,0.300000X0.800000X315.000000*%
%ADD19RotRect,0.300000X0.800000X225.000000*%
%ADD20RotRect,2.750000X2.750000X225.000000*%
G04 APERTURE END LIST*
D10*
%TO.C,SW4*%
X151690000Y-105070000D03*
X151690000Y-95970000D03*
X147230000Y-105070000D03*
X147230000Y-95970000D03*
%TD*%
D11*
%TO.C,R17*%
X170542000Y-84922500D03*
X170542000Y-83097500D03*
%TD*%
D12*
%TO.C,D3*%
X122282000Y-88503500D03*
X122282000Y-86628500D03*
%TD*%
D13*
%TO.C,R14*%
X146920000Y-82087500D03*
X146920000Y-83912500D03*
%TD*%
D10*
%TO.C,SW1*%
X113830000Y-105050000D03*
X113830000Y-95950000D03*
X109370000Y-105050000D03*
X109370000Y-95950000D03*
%TD*%
%TO.C,SW3*%
X138990000Y-105070000D03*
X138990000Y-95970000D03*
X134530000Y-105070000D03*
X134530000Y-95970000D03*
%TD*%
D14*
%TO.C,R6*%
X190012500Y-94000000D03*
X188187500Y-94000000D03*
%TD*%
D15*
%TO.C,D7*%
X167900000Y-75862500D03*
X167900000Y-77737500D03*
%TD*%
D13*
%TO.C,R5*%
X122282000Y-82589500D03*
X122282000Y-84414500D03*
%TD*%
D11*
%TO.C,R22*%
X183242000Y-84922500D03*
X183242000Y-83097500D03*
%TD*%
D13*
%TO.C,R13*%
X151746000Y-86907500D03*
X151746000Y-88732500D03*
%TD*%
D15*
%TO.C,D11*%
X178200000Y-75862500D03*
X178200000Y-77737500D03*
%TD*%
D16*
%TO.C,C1*%
X170798000Y-118550000D03*
X170798000Y-120450000D03*
%TD*%
D15*
%TO.C,D12*%
X180700000Y-75862500D03*
X180700000Y-77737500D03*
%TD*%
D14*
%TO.C,R7*%
X193012500Y-85500000D03*
X191187500Y-85500000D03*
%TD*%
D12*
%TO.C,D2*%
X109100000Y-88937500D03*
X109100000Y-87062500D03*
%TD*%
D17*
%TO.C,R10*%
X175100000Y-111500000D03*
X176925000Y-111500000D03*
%TD*%
D12*
%TO.C,D5*%
X146920000Y-88757500D03*
X146920000Y-86882500D03*
%TD*%
D15*
%TO.C,D8*%
X170500000Y-75862500D03*
X170500000Y-77737500D03*
%TD*%
D12*
%TO.C,D4*%
X134474000Y-88757500D03*
X134474000Y-86882500D03*
%TD*%
D10*
%TO.C,SW2*%
X126830000Y-105070000D03*
X126830000Y-95970000D03*
X122370000Y-105070000D03*
X122370000Y-95970000D03*
%TD*%
D13*
%TO.C,R9*%
X134474000Y-82589500D03*
X134474000Y-84414500D03*
%TD*%
D12*
%TO.C,D1*%
X131172000Y-122285500D03*
X131172000Y-120410500D03*
%TD*%
D11*
%TO.C,R21*%
X180702000Y-84922500D03*
X180702000Y-83097500D03*
%TD*%
%TO.C,R18*%
X173082000Y-84922500D03*
X173082000Y-83097500D03*
%TD*%
%TO.C,R20*%
X178162000Y-84922500D03*
X178162000Y-83097500D03*
%TD*%
D13*
%TO.C,R8*%
X139100000Y-86907500D03*
X139100000Y-88732500D03*
%TD*%
%TO.C,R2*%
X113900000Y-86907500D03*
X113900000Y-88732500D03*
%TD*%
D14*
%TO.C,R12*%
X189012500Y-104000000D03*
X187187500Y-104000000D03*
%TD*%
D13*
%TO.C,R1*%
X131172000Y-115355500D03*
X131172000Y-117180500D03*
%TD*%
D16*
%TO.C,C2*%
X174100000Y-118550000D03*
X174100000Y-120450000D03*
%TD*%
D11*
%TO.C,R16*%
X168002000Y-84922500D03*
X168002000Y-83097500D03*
%TD*%
D15*
%TO.C,D10*%
X175600000Y-75862500D03*
X175600000Y-77737500D03*
%TD*%
D17*
%TO.C,R11*%
X165187500Y-121500000D03*
X167012500Y-121500000D03*
%TD*%
D11*
%TO.C,R19*%
X175622000Y-84922500D03*
X175622000Y-83097500D03*
%TD*%
D15*
%TO.C,D13*%
X183300000Y-75862500D03*
X183300000Y-77737500D03*
%TD*%
D11*
%TO.C,R15*%
X165462000Y-84922500D03*
X165462000Y-83097500D03*
%TD*%
D15*
%TO.C,D6*%
X165300000Y-75862500D03*
X165300000Y-77737500D03*
%TD*%
D13*
%TO.C,R3*%
X109100000Y-82087500D03*
X109100000Y-83912500D03*
%TD*%
%TO.C,R4*%
X126854000Y-86653500D03*
X126854000Y-88478500D03*
%TD*%
D18*
%TO.C,IC1*%
X168268097Y-111419670D03*
X167914544Y-111066117D03*
X167560990Y-110712563D03*
X167207437Y-110359010D03*
X166853883Y-110005456D03*
X166500330Y-109651903D03*
D19*
X165439670Y-109651903D03*
X165086117Y-110005456D03*
X164732563Y-110359010D03*
X164379010Y-110712563D03*
X164025456Y-111066117D03*
X163671903Y-111419670D03*
D18*
X163671903Y-112480330D03*
X164025456Y-112833883D03*
X164379010Y-113187437D03*
X164732563Y-113540990D03*
X165086117Y-113894544D03*
X165439670Y-114248097D03*
D19*
X166500330Y-114248097D03*
X166853883Y-113894544D03*
X167207437Y-113540990D03*
X167560990Y-113187437D03*
X167914544Y-112833883D03*
X168268097Y-112480330D03*
D20*
X165970000Y-111950000D03*
%TD*%
D15*
%TO.C,D9*%
X173100000Y-75862500D03*
X173100000Y-77737500D03*
%TD*%
M02*
